# xmcd
# 
# Track frame offsets:
#     150
#     19550
#     41890
#     62395
#     82985
#     104145
#     127240
#     145265
#     166760
#     183030
#     202972
#     225675
#     243585
#     262980
#     282595
# 
# Disc length: 4043
# 
# Revision: 0
# Processed by: cddbd v1.5.2PL0 Copyright (c) Steve Scherf et al.
# Submitted via: BonkEnc v1.0
# 
DISCID=d00fc90f
DTITLE=松任谷由実 - neue musik  Disc1
DYEAR=1998
DGENRE=Japanese Pop
TTITLE0=守ってあげたい
TTITLE1=恋人はサンタクロース
TTITLE2=BLIZZARD
TTITLE3=サーフ天国、スキー天国
TTITLE4=ダイアモンドダストが消えぬまに
TTITLE5=きみなき世界
TTITLE6=SWEET DREAMS
TTITLE7=ノーサイド
TTITLE8=時をかける少女
TTITLE9=ダンデライオン〜遅咲きのたんぽぽ
TTITLE10=Valentine's RADIO
TTITLE11=青春のリグレット
TTITLE12=Hello, my friend
TTITLE13=DESTINY
TTITLE14=埠頭を渡る風
EXTD=YEAR: 1998
EXTT0=
EXTT1=
EXTT2=
EXTT3=
EXTT4=
EXTT5=
EXTT6=
EXTT7=
EXTT8=
EXTT9=
EXTT10=
EXTT11=
EXTT12=
EXTT13=
EXTT14=
PLAYORDER=
